# xmcd CD database file
#
# Track frame offsets:
#	150
#	10003
#	22193
#	35471
#	48906
#	60522
#	72005
#	84740
#	98832
#	109177
#	120633
#	131327
#	143770
#	154243
#
# Disc length: 2293 seconds
#
# Revision: 0
# Processed by: cddbd v1.5.2PL0 Copyright (c) Steve Scherf et al.
# Submitted via: CDex 1.51
#
DISCID=b308f30e
DTITLE=Lynn Anderson - Forever Gold
DYEAR=2007
DGENRE=Country Vocal
TTITLE0=What A Man My Man Is
TTITLE1=How Can I Unlove You
TTITLE2=Keep Me In Mind
TTITLE3=Rose Garden
TTITLE4=You're My Man
TTITLE5=That's A No, No (Live)
TTITLE6=Top Of The World
TTITLE7=Cry
TTITLE8=Fool Me
TTITLE9=Listen To A Country Song
TTITLE10=If I Kiss You
TTITLE11=I've Never Loved Anyone More
TTITLE12=I've Been Everywhere
TTITLE13=Under The Boardwalk (Live)
EXTD=YEAR: 2007
EXTT0=
EXTT1=
EXTT2=
EXTT3=
EXTT4=
EXTT5=
EXTT6=
EXTT7=
EXTT8=
EXTT9=
EXTT10=
EXTT11=
EXTT12=
EXTT13=
PLAYORDER=
